<?xml version="1.0" encoding="UTF-8"?>
<svg xmlns="http://www.w3.org/2000/svg" width="650" height="300" viewBox="0 0 650 300">
  <defs>
    <linearGradient id="termBg" x1="0%" y1="0%" x2="0%" y2="100%">
      <stop offset="0%" style="stop-color:#0d1829"/>
      <stop offset="100%" style="stop-color:#0a0f1e"/>
    </linearGradient>
  </defs>

  <rect x="0" y="0" width="650" height="300" rx="12" ry="12" fill="url(#termBg)" stroke="#1a2744" stroke-width="1"/>
  <rect x="0" y="0" width="650" height="36" rx="12" ry="12" fill="#111827"/>
  <rect x="0" y="24" width="650" height="12" fill="#111827"/>

  <circle cx="20" cy="18" r="6" fill="#ff5f56"/>
  <circle cx="40" cy="18" r="6" fill="#ffbd2e"/>
  <circle cx="60" cy="18" r="6" fill="#27ca40"/>

  <text x="325" y="23" text-anchor="middle" font-family="'SF Mono', 'Consolas', monospace" font-size="12" fill="#6b7280">
    rohit@ai-engineer — zsh
  </text>

  <g font-family="'SF Mono', 'JetBrains Mono', 'Consolas', monospace" font-size="13">
    <text x="20" y="65" fill="#27ca40">❯</text>
    <text x="40" y="65" fill="#e5e7eb">cat profile.json</text>

    <text x="20" y="95" fill="#90caf9">{</text>

    <text x="35" y="120" fill="#7c9fd4">"name"</text>
    <text x="90" y="120" fill="#9ca3af">:</text>
    <text x="100" y="120" fill="#e8eaf6">"G Rohit Sudarsen"</text>
    <text x="260" y="120" fill="#9ca3af">,</text>

    <text x="35" y="145" fill="#7c9fd4">"role"</text>
    <text x="85" y="145" fill="#9ca3af">:</text>
    <text x="95" y="145" fill="#e8eaf6">"AI Engineer · ML Researcher"</text>
    <text x="355" y="145" fill="#9ca3af">,</text>

    <text x="35" y="170" fill="#7c9fd4">"location"</text>
    <text x="115" y="170" fill="#9ca3af">:</text>
    <text x="125" y="170" fill="#e8eaf6">"Chennai, Tamil Nadu 🇮🇳"</text>
    <text x="320" y="170" fill="#9ca3af">,</text>

    <text x="35" y="195" fill="#7c9fd4">"focus"</text>
    <text x="90" y="195" fill="#9ca3af">:</text>
    <text x="100" y="195" fill="#e8eaf6">"LLMs · RAG · Healthcare AI · GNNs"</text>
    <text x="390" y="195" fill="#9ca3af">,</text>

    <text x="35" y="220" fill="#7c9fd4">"goal"</text>
    <text x="80" y="220" fill="#9ca3af">:</text>
    <text x="90" y="220" fill="#e8eaf6">"AI that reaches the real world"</text>

    <text x="20" y="245" fill="#90caf9">}</text>

    <text x="20" y="275" fill="#27ca40">❯</text>
    <rect x="40" y="263" width="10" height="16" fill="#2d5be3">
      <animate attributeName="opacity" values="1;0;1" dur="1s" repeatCount="indefinite"/>
    </rect>
  </g>
</svg>
